<svg xmlns="http://www.w3.org/2000/svg" xmlns:xlink="http://www.w3.org/1999/xlink" fill="none" version="1.1" width="24" height="24" viewBox="0 0 24 24"><defs><clipPath id="master_svg0_4288_64025"><rect x="0" y="0" width="24" height="24" rx="0"/></clipPath></defs><g clip-path="url(#master_svg0_4288_64025)"><g transform="matrix(0.7071067690849304,0.7071067690849304,-0.7071067690849304,0.7071067690849304,9.958923204569146,-9.92577938712202)"><path d="M17.9792375,7.05990083L17.9792375,7.05859375Q17.9792375,6.96010235,17.9600215,6.86350375Q17.9408075,6.76690475,17.9031155,6.67591075Q17.8654245,6.58491575,17.8107065,6.50302375Q17.7559875,6.42113075,17.6863435,6.35148675Q17.6166995,6.28184275,17.5348065,6.22712375Q17.4529145,6.17240575,17.3619195,6.13471475Q17.2709255,6.09702375,17.1743265,6.07780875Q17.0777275,6.05859375,16.9792366,6.05859375Q16.8808277,6.05859375,16.7843065,6.07777675Q16.6877855,6.09695975,16.5968555,6.13458975Q16.5059245,6.17221875,16.4240735,6.22685175Q16.3422235,6.28148475,16.272592500000002,6.35102475Q16.2029605,6.4205647500000005,16.1482215,6.50234475Q16.0934815,6.58412375,16.0557325,6.67500475Q16.0179845,6.76588575,15.998675500000001,6.86238175Q15.9793665,6.95887785,15.9792375,7.05728667L15.9792355,7.05859374885763L15.9609385,21.05729375L15.9609375,21.05859375Q15.9609375,21.15709375,15.980152499999999,21.25369375Q15.9993675,21.35029375,16.0370585,21.44129375Q16.0747495,21.53229375,16.1294675,21.61419375Q16.1841865,21.69609375,16.2538305,21.76569375Q16.3234745,21.835293749999998,16.4053675,21.89009375Q16.4872595,21.944793750000002,16.5782545,21.98249375Q16.6692485,22.02019375,16.7658475,22.039393750000002Q16.8624461,22.05859375,16.9609375,22.05859375Q17.0593464,22.05859375,17.1558675,22.039393750000002Q17.2523885,22.02019375,17.3433195,21.98259375Q17.4342495,21.944993750000002,17.5161005,21.890293749999998Q17.5979515,21.83569375,17.6675825,21.76619375Q17.7372135,21.696593749999998,17.791953499999998,21.61479375Q17.8466935,21.53309375,17.8844415,21.44219375Q17.9221905,21.35129375,17.9414995,21.254793749999997Q17.9608085,21.15829375,17.9609365,21.05989375L17.9609375,21.05859375L17.9792375,7.05990083Z" fill-rule="evenodd" fill="#2D2E33" fill-opacity="1"/></g><g transform="matrix(0.7071067690849304,0.7071067690849304,-0.7071067690849304,0.7071067690849304,7.0500907160458155,-2.9208150769700296)"><path d="M7.05078125,6.0498046875L21.05078125,6.0498046875Q21.14928125,6.0498046875,21.24588125,6.0690196875Q21.34248125,6.0882346875,21.43348125,6.1259256875Q21.52448125,6.1636166875,21.60638125,6.2183346875Q21.68828125,6.2730536875,21.75788125,6.3426976875Q21.827481249999998,6.4123416875,21.88228125,6.4942346875Q21.936981250000002,6.5761266875,21.97468125,6.6671216875Q22.01238125,6.7581156875,22.031581250000002,6.8547146875Q22.05078125,6.9513132875,22.05078125,7.0498046875Q22.05078125,7.1482960875,22.031581250000002,7.2448946875Q22.01238125,7.3414936875,21.97468125,7.4324876875Q21.936981250000002,7.5234826875,21.88228125,7.6053746875Q21.827481249999998,7.6872676875,21.75788125,7.7569116875Q21.68828125,7.8265556875,21.60638125,7.8812746875Q21.52448125,7.9359926875,21.43348125,7.9736836875Q21.34248125,8.0113746875,21.24588125,8.030589687500001Q21.14928125,8.0498046875,21.05078125,8.0498046875L7.05078125,8.0498046875Q6.95228985,8.0498046875,6.85569125,8.030589687500001Q6.75909225,8.0113746875,6.66809825,7.9736836875Q6.57710325,7.9359926875,6.49521125,7.8812746875Q6.41331825,7.8265556875,6.34367425,7.7569116875Q6.27403025,7.6872676875,6.21931125,7.6053746875Q6.16459325,7.5234826875,6.12690225,7.4324876875Q6.08921125,7.3414936875,6.06999625,7.2448946875Q6.05078125,7.1482960875,6.05078125,7.0498046875Q6.05078125,6.9513132875,6.06999625,6.8547146875Q6.08921125,6.7581156875,6.12690225,6.6671216875Q6.16459325,6.5761266875,6.21931125,6.4942346875Q6.27403025,6.4123416875,6.34367425,6.3426976875Q6.41331825,6.2730536875,6.49521125,6.2183346875Q6.57710325,6.1636166875,6.66809825,6.1259256875Q6.75909225,6.0882346875,6.85569125,6.0690196875Q6.95228985,6.0498046875,7.05078125,6.0498046875Z" fill-rule="evenodd" fill="#2D2E33" fill-opacity="1"/></g></g></svg>